<?xml version="1.0" encoding="utf-8"?>
<!-- Generator: Adobe Illustrator 27.1.0, SVG Export Plug-In . SVG Version: 6.00 Build 0)  -->
<svg version="1.1" id="Layer_1" xmlns="http://www.w3.org/2000/svg" x="0px" y="0px"
	 viewBox="0 0 512 512" style="enable-background:new 0 0 512 512;" xml:space="preserve">
<path d="M267.93,511.98h79.81v0.05C334.18,512.02,302.03,512.02,267.93,511.98L267.93,511.98L267.93,511.98z M126.71,0.28
	c-11.5,0.2-23.1,0.95-33.5,2.9c-11.3,2.15-21.6,5-31.9,10.25c-10.45,5.3-19.45,12.55-27.5,20.4c-7.85,8.05-15.1,17.1-20.4,27.5
	c-5.2,10.3-8.1,20.55-10.25,31.9c-1.95,10.4-2.7,22-2.9,33.5c-0.05,2.6-0.05,5-0.1,8.75L0,360.51c0,2.85,0.05,5.95,0.05,9.35
	c0.1,8.15,0.15,11.5,0.2,15.35c0.2,11.5,0.95,23.1,2.9,33.5c0.95,4.95,2,9.7,3.35,14.3c1.75,5.95,3.95,11.75,6.9,17.55
	c5.3,10.45,12.55,19.45,20.4,27.5c8.05,7.85,17.1,15.1,27.5,20.4c10.3,5.2,20.55,8.1,31.9,10.25c10.4,1.95,22,2.7,33.5,2.9
	c3.85,0.05,7.2,0.1,15.35,0.2c7.75,0.05,14.1,0.1,18.8,0.1h107.01V313.41h-64.35v-74.26h63.9v-69.11c0-53.05,41-91.06,94.01-91.06
	l68.61,1.5v71.31h-52.4c-15.15,0-27.45,16.75-27.45,31.95v55.41h77.31l-11,74.31h-68.76v198.52h3.3c4.7,0,11.05-0.05,18.8-0.1
	c6.45-0.05,9.9-0.1,12.95-0.1c0.8,0,1.6,0,2.45-0.05c11.5-0.2,23.1-0.95,33.5-2.9c11.3-2.15,21.6-5,31.9-10.25
	c10.45-5.3,19.45-12.55,27.5-20.4c7.85-8.05,15.1-17.1,20.4-27.5c5.2-10.3,8.1-20.55,10.25-31.9c1.95-10.4,2.7-22,2.9-33.5
	c0.05-3.85,0.1-7.2,0.2-15.35c0.05-7.75,0.1-14.1,0.1-18.8V160.94v-5.45c0-3.8-0.05-8.3-0.1-13.4c-0.1-8.15-0.15-11.5-0.2-15.35
	c-0.2-11.5-0.95-23.1-2.9-33.5c-2.15-11.3-5-21.6-10.25-31.9c-5.3-10.45-12.55-19.45-20.4-27.5c-8.05-7.85-17.1-15.1-27.5-20.4
	c-10.3-5.2-20.55-8.1-31.9-10.25c-10.4-1.95-22-2.7-33.5-2.9c-3.85-0.05-7.2-0.1-15.35-0.2c-7.8-0.05-14.15-0.1-18.85-0.1l-190.17,0
	c-4.7,0-11.05,0.05-18.8,0.1C133.91,0.18,130.56,0.22,126.71,0.28L126.71,0.28z"/>
</svg>
