<?xml version="1.0" encoding="utf-8"?>
<!-- Generator: Adobe Illustrator 27.1.0, SVG Export Plug-In . SVG Version: 6.00 Build 0)  -->
<svg version="1.1" id="Layer_1" xmlns="http://www.w3.org/2000/svg" xmlns:xlink="http://www.w3.org/1999/xlink" x="0px" y="0px"
	 viewBox="0 0 512 512" style="enable-background:new 0 0 512 512;" xml:space="preserve">
<path d="M256,0c-69.53,0-78.23,0.31-105.55,1.54c-27.24,1.25-45.85,5.58-62.13,11.9c-17.09,6.42-32.57,16.49-45.36,29.52
	C29.94,55.75,19.86,71.23,13.44,88.32c-6.32,16.28-10.65,34.89-11.9,62.13C0.28,177.77,0,186.47,0,256s0.28,78.23,1.54,105.55
	c1.25,27.24,5.58,45.85,11.9,62.13c6.42,17.09,16.5,32.57,29.52,45.36c12.79,13.02,28.28,23.09,45.36,29.52
	c16.28,6.32,34.89,10.65,62.13,11.9C177.77,511.69,186.47,512,256,512s78.23-0.31,105.55-1.54c27.24-1.25,45.85-5.58,62.13-11.9
	c17.09-6.42,32.57-16.5,45.36-29.52c13.02-12.79,23.09-28.28,29.52-45.36c6.32-16.28,10.65-34.89,11.9-62.13
	C511.69,334.23,512,325.53,512,256s-0.31-78.23-1.54-105.55c-1.25-27.24-5.58-45.85-11.9-62.13c-6.42-17.09-16.5-32.57-29.52-45.36
	c-12.79-13.02-28.27-23.1-45.36-29.52c-16.28-6.32-34.89-10.65-62.13-11.9C334.23,0.31,325.53,0,256,0 M256,46.13
	c68.35,0,76.44,0.26,103.42,1.48c24.99,1.15,38.53,5.3,47.56,8.81c11.93,4.66,20.48,10.21,29.44,19.15
	c8.96,8.96,14.49,17.51,19.15,29.44c3.48,9.04,7.68,22.58,8.81,47.54c1.23,27.01,1.48,35.07,1.48,103.45
	c0,68.35-0.26,76.44-1.48,103.42c-1.15,24.99-5.32,38.53-8.81,47.56c-4.1,11.12-10.65,21.18-19.15,29.44
	c-8.96,8.96-17.51,14.49-29.44,19.15c-9.04,3.48-22.58,7.68-47.54,8.81c-26.98,1.23-35.07,1.48-103.45,1.48
	c-68.35,0-76.47-0.26-103.42-1.48c-24.99-1.15-38.53-5.32-47.56-8.81c-11.12-4.1-21.18-10.65-29.44-19.15
	c-8.5-8.26-15.05-18.32-19.15-29.44c-3.51-9.04-7.68-22.58-8.81-47.54c-1.23-27.01-1.48-35.07-1.48-103.45
	c0-68.35,0.26-76.44,1.48-103.42c1.15-24.99,5.3-38.53,8.81-47.56c4.66-11.93,10.21-20.48,19.15-29.44
	c8.96-8.96,17.51-14.49,29.44-19.15c9.04-3.51,22.58-7.68,47.54-8.81C179.56,46.39,187.62,46.13,256,46.13 M256,341.32
	c-47.12,0-85.33-38.19-85.33-85.32c0-47.12,38.19-85.33,85.32-85.33c0,0,0.01,0,0.01,0c47.12,0,85.32,38.21,85.32,85.33
	C341.31,303.13,303.12,341.32,256,341.32 M256,124.54c-72.6,0-131.46,58.85-131.46,131.46S183.4,387.46,256,387.46
	S387.46,328.6,387.46,256S328.6,124.54,256,124.54 M423.37,119.35c0,16.97-13.75,30.72-30.72,30.72s-30.72-13.75-30.72-30.72
	s13.75-30.72,30.72-30.72S423.37,102.38,423.37,119.35"/>
</svg>
